<?xml version="1.0" encoding="utf-8"?>
<svg xmlns="http://www.w3.org/2000/svg" fill="none" height="44" viewBox="0 0 200 44" width="200">
<path clip-rule="evenodd" d="M38.0048 31.7443C38.0048 33.5233 36.5633 34.9637 34.7859 34.9637C33.0085 34.9637 31.5675 33.5233 31.5675 31.7443C31.5675 29.9669 33.0085 28.526 34.7859 28.526C36.5633 28.526 38.0048 29.9669 38.0048 31.7443ZM38.0048 23.1618C38.0048 24.9387 36.5633 26.3797 34.7859 26.3797C33.0085 26.3797 31.5675 24.9387 31.5675 23.1618C31.5675 21.3834 33.0085 19.9429 34.7859 19.9429C36.5633 19.9429 38.0048 21.3834 38.0048 23.1618ZM38.0048 14.5772C38.0048 16.3557 36.5633 17.7971 34.7859 17.7971C33.0085 17.7971 31.5675 16.3557 31.5675 14.5772C31.5675 12.7993 33.0085 11.3583 34.7859 11.3583C36.5633 11.3583 38.0048 12.7993 38.0048 14.5772ZM47.0299 31.2821C47.0299 32.4679 46.0685 33.4278 44.8832 33.4278C43.6974 33.4278 42.7369 32.4679 42.7369 31.2821C42.7369 30.0973 43.6974 29.1363 44.8832 29.1363C46.0685 29.1363 47.0299 30.0973 47.0299 31.2821ZM52.2572 26.894C52.2572 27.4862 51.7767 27.9667 51.184 27.9667C50.5924 27.9667 50.1119 27.4862 50.1119 26.894C50.1119 26.3009 50.5924 25.8204 51.184 25.8204C51.7767 25.8204 52.2572 26.3009 52.2572 26.894ZM52.2572 18.3105C52.2572 18.9026 51.7767 19.3826 51.184 19.3826C50.5924 19.3826 50.1119 18.9026 50.1119 18.3105C50.1119 17.7173 50.5924 17.2363 51.184 17.2363C51.7767 17.2363 52.2572 17.7173 52.2572 18.3105ZM52.2572 9.72641C52.2572 10.3186 51.7767 10.7985 51.184 10.7985C50.5924 10.7985 50.1119 10.3186 50.1119 9.72641C50.1119 9.13376 50.5924 8.65378 51.184 8.65378C51.7767 8.65378 52.2572 9.13376 52.2572 9.72641ZM52.2572 1.14185C52.2572 1.735 51.7767 2.21599 51.184 2.21599C50.5924 2.21599 50.1119 1.735 50.1119 1.14185C50.1119 0.549703 50.5924 0.0692181 51.184 0.0692181C51.7767 0.0692181 52.2572 0.549703 52.2572 1.14185ZM52.2572 35.4771C52.2572 36.0702 51.7767 36.5502 51.184 36.5502C50.5924 36.5502 50.1119 36.0702 50.1119 35.4771C50.1119 34.8839 50.5924 34.4039 51.184 34.4039C51.7767 34.4039 52.2572 34.8839 52.2572 35.4771ZM47.0299 22.6995C47.0299 23.8828 46.0685 24.8453 44.8832 24.8453C43.6974 24.8453 42.7369 23.8828 42.7369 22.6995C42.7369 21.5137 43.6974 20.5532 44.8832 20.5532C46.0685 20.5532 47.0299 21.5137 47.0299 22.6995ZM47.0299 14.1139C47.0299 15.3002 46.0685 16.2607 44.8832 16.2607C43.6974 16.2607 42.7369 15.3002 42.7369 14.1139C42.7369 12.9296 43.6974 11.9677 44.8832 11.9677C46.0685 11.9677 47.0299 12.9296 47.0299 14.1139ZM47.0299 5.53088C47.0299 6.71669 46.0685 7.67715 44.8832 7.67715C43.6974 7.67715 42.7369 6.71669 42.7369 5.53088C42.7369 4.34609 43.6974 3.38462 44.8832 3.38462C46.0685 3.38462 47.0299 4.34609 47.0299 5.53088ZM47.0299 39.8661C47.0299 41.0509 46.0685 42.0124 44.8832 42.0124C43.6974 42.0124 42.7369 41.0509 42.7369 39.8661C42.7369 38.6803 43.6974 37.7209 44.8832 37.7209C46.0685 37.7209 47.0299 38.6803 47.0299 39.8661ZM14.2524 3.21991C14.2524 1.44095 15.6943 0 17.4708 0C19.2487 0 20.6907 1.44095 20.6907 3.21991C20.6907 4.99785 19.2487 6.43779 17.4708 6.43779C15.6943 6.43779 14.2524 4.99785 14.2524 3.21991ZM14.2524 11.803C14.2524 10.0245 15.6943 8.58355 17.4708 8.58355C19.2487 8.58355 20.6907 10.0245 20.6907 11.803C20.6907 13.5809 19.2487 15.0224 17.4708 15.0224C15.6943 15.0224 14.2524 13.5809 14.2524 11.803ZM14.2524 20.3865C14.2524 18.6096 15.6943 17.1681 17.4708 17.1681C19.2487 17.1681 20.6907 18.6096 20.6907 20.3865C20.6907 22.164 19.2487 23.6049 17.4708 23.6049C15.6943 23.6049 14.2524 22.164 14.2524 20.3865ZM14.2524 28.9711C14.2524 27.1931 15.6943 25.7512 17.4708 25.7512C19.2487 25.7512 20.6907 27.1931 20.6907 28.9711C20.6907 30.748 19.2487 32.1895 17.4708 32.1895C15.6943 32.1895 14.2524 30.748 14.2524 28.9711ZM5.41266 12.1728C5.41266 10.9875 6.37312 10.0265 7.55892 10.0265C8.74321 10.0265 9.70519 10.9875 9.70519 12.1728C9.70519 13.3571 8.74321 14.3186 7.55892 14.3186C6.37312 14.3186 5.41266 13.3571 5.41266 12.1728ZM0 16.6548C0 16.0621 0.47998 15.5812 1.07313 15.5812C1.66578 15.5812 2.14627 16.0621 2.14627 16.6548C2.14627 17.2464 1.66578 17.7274 1.07313 17.7274C0.47998 17.7274 0 17.2464 0 16.6548ZM0 25.2378C0 24.6457 0.47998 24.1662 1.07313 24.1662C1.66578 24.1662 2.14627 24.6457 2.14627 25.2378C2.14627 25.831 1.66578 26.311 1.07313 26.311C0.47998 26.311 0 25.831 0 25.2378ZM0 33.8219C0 33.2293 0.47998 32.7488 1.07313 32.7488C1.66578 32.7488 2.14627 33.2293 2.14627 33.8219C2.14627 34.4135 1.66578 34.8945 1.07313 34.8945C0.47998 34.8945 0 34.4135 0 33.8219ZM0 42.406C0 41.8133 0.47998 41.3328 1.07313 41.3328C1.66578 41.3328 2.14627 41.8133 2.14627 42.406C2.14627 42.9971 1.66578 43.4781 1.07313 43.4781C0.47998 43.4781 0 42.9971 0 42.406ZM0 8.07073C0 7.47809 0.47998 6.99811 1.07313 6.99811C1.66578 6.99811 2.14627 7.47809 2.14627 8.07073C2.14627 8.66288 1.66578 9.14387 1.07313 9.14387C0.47998 9.14387 0 8.66288 0 8.07073ZM5.41266 20.7558C5.41266 19.5721 6.37312 18.6111 7.55892 18.6111C8.74321 18.6111 9.70519 19.5721 9.70519 20.7558C9.70519 21.9411 8.74321 22.9026 7.55892 22.9026C6.37312 22.9026 5.41266 21.9411 5.41266 20.7558ZM5.41266 29.3404C5.41266 28.1546 6.37312 27.1941 7.55892 27.1941C8.74321 27.1941 9.70519 28.1546 9.70519 29.3404C9.70519 30.5252 8.74321 31.4857 7.55892 31.4857C6.37312 31.4857 5.41266 30.5252 5.41266 29.3404ZM5.41266 37.923C5.41266 36.7387 6.37312 35.7782 7.55892 35.7782C8.74321 35.7782 9.70519 36.7387 9.70519 37.923C9.70519 39.1098 8.74321 40.0697 7.55892 40.0697C6.37312 40.0697 5.41266 39.1098 5.41266 37.923ZM5.41266 3.58823C5.41266 2.40394 6.37312 1.44196 7.55892 1.44196C8.74321 1.44196 9.70519 2.40394 9.70519 3.58823C9.70519 4.77403 8.74321 5.735 7.55892 5.735C6.37312 5.735 5.41266 4.77403 5.41266 3.58823ZM22.4656 8.85133C22.4656 6.77782 24.1475 5.09587 26.2215 5.09587C28.2946 5.09587 29.976 6.77782 29.976 8.85133C29.976 10.9254 28.2946 12.6078 26.2215 12.6078C24.1475 12.6078 22.4656 10.9254 22.4656 8.85133ZM22.4656 17.4354C22.4656 15.3614 24.1475 13.6804 26.2215 13.6804C28.2946 13.6804 29.976 15.3614 29.976 17.4354C29.976 19.5094 28.2946 21.1909 26.2215 21.1909C24.1475 21.1909 22.4656 19.5094 22.4656 17.4354ZM22.4656 26.0195C22.4656 23.9459 24.1475 22.2635 26.2215 22.2635C28.2946 22.2635 29.976 23.9459 29.976 26.0195C29.976 28.0935 28.2946 29.7744 26.2215 29.7744C24.1475 29.7744 22.4656 28.0935 22.4656 26.0195ZM22.4656 34.6035C22.4656 32.5285 24.1475 30.8486 26.2215 30.8486C28.2946 30.8486 29.976 32.5285 29.976 34.6035C29.976 36.677 28.2946 38.359 26.2215 38.359C24.1475 38.359 22.4656 36.677 22.4656 34.6035ZM38.0048 40.3294C38.0048 42.1074 36.5633 43.5483 34.7859 43.5483C33.0085 43.5483 31.5675 42.1074 31.5675 40.3294C31.5675 38.552 33.0085 37.1105 34.7859 37.1105C36.5633 37.1105 38.0048 38.552 38.0048 40.3294Z" fill="#EC008C" fill-rule="evenodd"/>
<path clip-rule="evenodd" d="M199.689 6.01253C199.689 6.88458 199.248 7.31858 198.365 7.31858L197.696 7.30292L196.858 7.28574C194.146 7.28574 192.79 7.96074 192.79 9.31126V19.0751C192.79 19.7349 192.548 20.1421 192.069 20.2982C191.879 20.3649 191.359 20.3993 190.511 20.3993C189.641 20.3993 189.205 19.9527 189.205 19.0594L189.256 9.31126C189.256 5.99636 192.291 4.33765 198.365 4.33765C199.248 4.33765 199.688 4.89645 199.689 6.01253ZM181.862 11.0367V9.06066C181.862 7.85464 179.468 7.25239 174.677 7.25239C174.085 7.25239 173.467 7.26351 172.819 7.28574L171.981 7.31858C168.42 7.31858 166.639 7.94407 166.639 9.19404V11.0367H181.862ZM185.313 12.6443C185.313 13.6164 184.983 14.1025 184.325 14.1025H166.756C166.634 16.3356 168.436 17.4512 172.166 17.4512H173.12L173.974 17.4345C174.846 17.4345 175.281 17.9817 175.281 19.0751C175.281 19.9582 174.846 20.3983 173.974 20.3993C171.686 20.3993 170.151 20.3594 169.369 20.2816C167.415 20.0926 165.98 19.6339 165.065 18.9083C163.758 17.8812 163.106 16.6868 163.106 15.3251V9.41281C163.106 7.55908 164.121 6.19139 166.154 5.30923C167.638 4.65141 169.447 4.32149 171.579 4.32149H178.178C179.93 4.32149 181.461 4.62867 182.768 5.24254C184.464 6.03476 185.313 7.21299 185.313 8.7762V12.6443ZM160.005 6.48241L148.751 20.081C148.383 20.5377 147.936 20.7661 147.411 20.7676C146.898 20.7676 146.462 20.5494 146.105 20.1143L134.784 6.48241C134.46 6.09135 134.297 5.7397 134.297 5.42696C134.297 4.65646 134.939 4.27046 136.224 4.27046C136.994 4.27046 137.531 4.45487 137.831 4.82319L147.428 16.5135L156.975 4.82319C157.264 4.45487 157.801 4.27046 158.582 4.27046C159.855 4.27046 160.491 4.65646 160.491 5.42696C160.491 5.7397 160.329 6.09135 160.005 6.48241ZM96.6718 15.2908C96.6718 18.6072 94.1269 20.2644 89.0361 20.2644H78.0148V23.5308C78.0148 24.1775 77.7748 24.5797 77.2948 24.7368C77.1043 24.8025 76.6031 24.8378 75.7876 24.8378C74.9166 24.8378 74.4816 24.4013 74.4816 23.5308V9.11067C74.4816 7.14579 75.3971 5.79477 77.2281 5.05813C78.4341 4.57815 80.209 4.33866 82.5544 4.33765H88.1817C93.8425 4.33765 96.6718 5.913 96.6718 9.06066V15.2908ZM123.007 15.6091C123.007 18.8366 119.59 20.4483 112.757 20.4488C112.21 20.4488 111.529 20.4377 110.715 20.4155L109.174 20.3993C103.434 20.3993 100.565 18.8027 100.565 15.6091V5.6624C100.565 4.77974 101.001 4.33866 101.871 4.33765C102.686 4.33765 103.194 4.37151 103.396 4.4387C103.864 4.59482 104.098 5.00255 104.098 5.6624V15.6091C104.098 16.8262 105.79 17.4345 109.174 17.4345H114.449C117.765 17.4345 119.423 16.8434 119.423 15.6596V5.6624C119.423 5.00255 119.662 4.59482 120.143 4.4387C120.332 4.37151 120.846 4.33765 121.683 4.33765C122.565 4.33765 123.007 4.77974 123.007 5.6624V15.6091ZM93.1048 15.3423V9.11067C93.1048 8.26288 92.4515 7.71014 91.1455 7.45348C90.5872 7.35243 89.6101 7.30292 88.2151 7.30292H82.7039C79.578 7.30292 78.0148 7.93397 78.0148 9.19404V17.3168H89.0361C91.7492 17.3168 93.1048 16.6585 93.1048 15.3423ZM130.433 19.0751C130.433 19.9582 129.997 20.3983 129.127 20.3993C128.3 20.3993 127.792 20.3594 127.602 20.2816C127.133 20.1255 126.899 19.7243 126.899 19.0751V1.30671C126.899 0.435166 127.334 0.000152588 128.206 0.000152588C129.032 0.000152588 129.539 0.0334986 129.729 0.101201C130.198 0.257321 130.433 0.659493 130.433 1.30671V19.0751Z" fill="#000101" fill-rule="evenodd"/>
</svg>